# xmcd
#
# Track frame offsets:
#	150
#	22412
#	43078
#	65623
#	98706
#	119526
#	143272
#	167857
#	200376
#	225420
#
# Disc length: 3387 seconds
#
# Revision: 0
# Processed by: cddbd v1.4PL0 Copyright (c) Steve Scherf et al.
# Submitted via: audiograbber 1.81.00
#
DISCID=870d390a
DTITLE=Hasse Walli and Steve Webb - Winners
DYEAR=2002
DGENRE=Blues
TTITLE0=On a winner with you
TTITLE1=Sweet lotus blossom
TTITLE2=Pretty woman
TTITLE3=God bless the child
TTITLE4=Mary had a little lamb
TTITLE5=Shade too blue
TTITLE6=Everyday I have the blues
TTITLE7=Red house
TTITLE8=Before you accuse me
TTITLE9=Church bells of Konevitsa (Konevitsan kirkonkellot)
EXTD=
EXTT0=
EXTT1=
EXTT2=
EXTT3=
EXTT4=
EXTT5=
EXTT6=
EXTT7=
EXTT8=
EXTT9=
PLAYORDER=
